<svg width="40" height="40" viewBox="0 0 40 40" fill="none" xmlns="http://www.w3.org/2000/svg">
<path d="M32.5 36.6667C33.8807 36.6667 35 35.5475 35 34.1667C35 32.786 33.8807 31.6667 32.5 31.6667C31.1193 31.6667 30 32.786 30 34.1667C30 35.5475 31.1193 36.6667 32.5 36.6667Z" stroke="white" stroke-width="3.5" stroke-linecap="round" stroke-linejoin="round"/>
<path d="M15.834 36.6667C17.2147 36.6667 18.334 35.5475 18.334 34.1667C18.334 32.786 17.2147 31.6667 15.834 31.6667C14.4533 31.6667 13.334 32.786 13.334 34.1667C13.334 35.5475 14.4533 36.6667 15.834 36.6667Z" stroke="white" stroke-width="3.5" stroke-linecap="round" stroke-linejoin="round"/>
<path d="M8.33398 6.66659H36.6673L33.334 24.9999H11.6673L8.33398 6.66659ZM8.33398 6.66659C8.05621 5.55547 6.66732 3.33325 3.33398 3.33325" stroke="white" stroke-width="3.5" stroke-linecap="round" stroke-linejoin="round"/>
<path d="M33.3327 25H11.666H8.7173C5.74346 25 4.16602 26.3021 4.16602 28.3333C4.16602 30.3646 5.74346 31.6667 8.7173 31.6667H32.4993" stroke="white" stroke-width="3.5" stroke-linecap="round" stroke-linejoin="round"/>
</svg>
