<svg width="29" height="28" viewBox="0 0 29 28" fill="none" xmlns="http://www.w3.org/2000/svg">
<path d="M25.7632 23.5715L20.5689 18.3751C22.1263 16.3456 22.8534 13.7997 22.6028 11.2538C22.3521 8.70797 21.1424 6.35278 19.2191 4.66602C17.2958 2.97926 14.8029 2.08725 12.2461 2.17092C9.68924 2.2546 7.25999 3.30771 5.45109 5.11661C3.64218 6.92552 2.58908 9.35477 2.5054 11.9116C2.42172 14.4684 3.31373 16.9613 5.00049 18.8846C6.68725 20.8079 9.04245 22.0176 11.5883 22.2683C14.1342 22.519 16.6801 21.7919 18.7096 20.2345L23.9082 25.4342C24.0302 25.5562 24.1752 25.6531 24.3347 25.7192C24.4942 25.7852 24.6652 25.8192 24.8378 25.8192C25.0105 25.8192 25.1815 25.7852 25.341 25.7192C25.5005 25.6531 25.6454 25.5562 25.7675 25.4342C25.8896 25.3121 25.9865 25.1671 26.0525 25.0076C26.1186 24.8481 26.1526 24.6771 26.1526 24.5045C26.1526 24.3318 26.1186 24.1608 26.0525 24.0013C25.9865 23.8418 25.8896 23.6969 25.7675 23.5748L25.7632 23.5715ZM5.14707 12.2501C5.14707 10.7791 5.58327 9.34113 6.40051 8.11804C7.21775 6.89495 8.37933 5.94167 9.73836 5.37874C11.0974 4.81581 12.5928 4.66853 14.0356 4.9555C15.4783 5.24248 16.8035 5.95084 17.8437 6.99099C18.8838 8.03114 19.5922 9.35638 19.8792 10.7991C20.1661 12.2418 20.0188 13.7373 19.4559 15.0963C18.893 16.4553 17.9397 17.6169 16.7166 18.4342C15.4935 19.2514 14.0556 19.6876 12.5846 19.6876C10.6126 19.6856 8.72206 18.9013 7.3277 17.507C5.93334 16.1126 5.14909 14.222 5.14707 12.2501Z" fill="#A1A1AA"/>
</svg>
