<svg width="40" height="40" viewBox="0 0 40 40" fill="none" xmlns="http://www.w3.org/2000/svg">
<path d="M36.666 20.8333L35.2771 24.9999M35.2771 24.9999L33.3327 30.8333H25.8327L24.166 24.9999H35.2771Z" stroke="white" stroke-width="3.5" stroke-linecap="round" stroke-linejoin="round"/>
<path d="M27.5 34.1834L27.5167 34.1649" stroke="white" stroke-width="3.5" stroke-linecap="round" stroke-linejoin="round"/>
<path d="M32.5 34.1834L32.5167 34.1649" stroke="white" stroke-width="3.5" stroke-linecap="round" stroke-linejoin="round"/>
<path d="M15.0007 18.3333C18.6825 18.3333 21.6673 15.3486 21.6673 11.6667C21.6673 7.98477 18.6825 5 15.0007 5C11.3188 5 8.33398 7.98477 8.33398 11.6667C8.33398 15.3486 11.3188 18.3333 15.0007 18.3333Z" stroke="white" stroke-width="3.5" stroke-linecap="round" stroke-linejoin="round"/>
<path d="M3.33398 29.9999C3.33398 23.5566 8.55733 18.3333 15.0007 18.3333C17.7257 18.3333 20.2325 19.2675 22.2183 20.8333" stroke="white" stroke-width="3.5" stroke-linecap="round" stroke-linejoin="round"/>
</svg>
