<svg width="65" height="40" viewBox="0 0 65 40" fill="none" xmlns="http://www.w3.org/2000/svg">
<g filter="url(#filter0_dd_11167_4249)">
<rect x="9.19922" y="5" width="46.4" height="30.0304" rx="5.37857" fill="white"/>
<rect x="9.08717" y="4.88795" width="46.6241" height="30.2545" rx="5.49062" stroke="black" stroke-width="0.224107"/>
<path d="M24.2076 16.0817C24.5172 15.6927 24.7273 15.1704 24.6718 14.6367C24.2187 14.6594 23.6657 14.9371 23.3455 15.3264C23.0581 15.6597 22.8037 16.2039 22.87 16.7152C23.3787 16.7595 23.8869 16.4598 24.2076 16.0817Z" fill="black"/>
<path d="M24.6661 16.8151C23.9273 16.7709 23.2992 17.2363 22.9464 17.2363C22.5935 17.2363 22.0532 16.8373 21.4689 16.8481C20.7084 16.8593 20.0028 17.2913 19.6168 17.9784C18.8231 19.3528 19.4074 21.3916 20.1793 22.511C20.5541 23.0648 21.0059 23.6746 21.6012 23.6527C22.1636 23.6305 22.3841 23.2868 23.0677 23.2868C23.7509 23.2868 23.9495 23.6527 24.5448 23.6416C25.1622 23.6305 25.5482 23.0875 25.9231 22.5332C26.3531 21.9019 26.5292 21.2923 26.5402 21.2588C26.5292 21.2477 25.3497 20.7932 25.3387 19.4302C25.3276 18.2889 26.2648 17.746 26.3089 17.7123C25.7797 16.926 24.9528 16.8373 24.6661 16.8151Z" fill="black"/>
<path d="M31.0984 15.2705C32.7041 15.2705 33.8221 16.3824 33.8221 18.0013C33.8221 19.6259 32.6811 20.7435 31.0582 20.7435H29.2804V23.5837H27.996V15.2705L31.0984 15.2705ZM29.2804 19.6604H30.7542C31.8725 19.6604 32.509 19.0556 32.509 18.007C32.509 16.9586 31.8725 16.3594 30.76 16.3594H29.2804V19.6604Z" fill="black"/>
<path d="M34.1577 21.8612C34.1577 20.8011 34.9663 20.1501 36.4 20.0695L38.0515 19.9716V19.505C38.0515 18.8309 37.5984 18.4276 36.8416 18.4276C36.1246 18.4276 35.6773 18.7732 35.5685 19.3148H34.3986C34.4674 18.2201 35.3963 17.4136 36.8874 17.4136C38.3497 17.4136 39.2843 18.1914 39.2843 19.4069V23.5837H38.0973V22.5871H38.0687C37.719 23.2611 36.9562 23.6874 36.1649 23.6874C34.9835 23.6874 34.1577 22.95 34.1577 21.8612ZM38.0515 21.3139V20.8358L36.5662 20.9279C35.8264 20.9798 35.4079 21.3081 35.4079 21.8266C35.4079 22.3566 35.8437 22.7023 36.5089 22.7023C37.3748 22.7023 38.0515 22.1031 38.0515 21.3139Z" fill="black"/>
<path d="M40.4051 25.8133V24.8051C40.4967 24.8281 40.7031 24.8281 40.8064 24.8281C41.3798 24.8281 41.6895 24.5861 41.8786 23.964C41.8786 23.9524 41.9877 23.5953 41.9877 23.5895L39.8087 17.5231H41.1504L42.6759 22.4546H42.6987L44.2243 17.5231H45.5317L43.2721 23.9005C42.7562 25.3697 42.1598 25.8421 40.9097 25.8421C40.8064 25.8421 40.4967 25.8305 40.4051 25.8133Z" fill="black"/>
</g>
<defs>
<filter id="filter0_dd_11167_4249" x="0.0103235" y="0.293736" width="64.7782" height="48.4071" filterUnits="userSpaceOnUse" color-interpolation-filters="sRGB">
<feFlood flood-opacity="0" result="BackgroundImageFix"/>
<feColorMatrix in="SourceAlpha" type="matrix" values="0 0 0 0 0 0 0 0 0 0 0 0 0 0 0 0 0 0 127 0" result="hardAlpha"/>
<feOffset dy="0.448214"/>
<feGaussianBlur stdDeviation="2.24107"/>
<feColorMatrix type="matrix" values="0 0 0 0 0.717647 0 0 0 0 0.717647 0 0 0 0 0.717647 0 0 0 0.08 0"/>
<feBlend mode="normal" in2="BackgroundImageFix" result="effect1_dropShadow_11167_4249"/>
<feColorMatrix in="SourceAlpha" type="matrix" values="0 0 0 0 0 0 0 0 0 0 0 0 0 0 0 0 0 0 127 0" result="hardAlpha"/>
<feOffset dy="4.48214"/>
<feGaussianBlur stdDeviation="4.48214"/>
<feColorMatrix type="matrix" values="0 0 0 0 0.717647 0 0 0 0 0.717647 0 0 0 0 0.717647 0 0 0 0.08 0"/>
<feBlend mode="normal" in2="effect1_dropShadow_11167_4249" result="effect2_dropShadow_11167_4249"/>
<feBlend mode="normal" in="SourceGraphic" in2="effect2_dropShadow_11167_4249" result="shape"/>
</filter>
</defs>
</svg>
