<svg width="24" height="25" viewBox="0 0 24 25" fill="none" xmlns="http://www.w3.org/2000/svg">
<path d="M21 4.45508H3C2.70163 4.45508 2.41548 4.5736 2.2045 4.78458C1.99353 4.99556 1.875 5.28171 1.875 5.58008V18.3301C1.875 18.8274 2.07254 19.3043 2.42417 19.6559C2.77581 20.0075 3.25272 20.2051 3.75 20.2051H20.25C20.7473 20.2051 21.2242 20.0075 21.5758 19.6559C21.9275 19.3043 22.125 18.8274 22.125 18.3301V5.58008C22.125 5.28171 22.0065 4.99556 21.7955 4.78458C21.5845 4.5736 21.2984 4.45508 21 4.45508ZM12 12.3038L5.89219 6.70508H18.1078L12 12.3038ZM8.69906 12.3301L4.125 16.5226V8.13758L8.69906 12.3301ZM10.3641 13.8563L11.2397 14.6598C11.4472 14.85 11.7185 14.9556 12 14.9556C12.2815 14.9556 12.5528 14.85 12.7603 14.6598L13.6359 13.8563L18.1078 17.9551H5.89219L10.3641 13.8563ZM15.3009 12.3301L19.875 8.13758V16.5226L15.3009 12.3301Z" fill="black"/>
</svg>
