<svg width="25" height="25" viewBox="0 0 25 25" fill="none" xmlns="http://www.w3.org/2000/svg">
<path d="M12.5 22.7717C18.0228 22.7717 22.5 18.2946 22.5 12.7717C22.5 7.24888 18.0228 2.77173 12.5 2.77173C6.97715 2.77173 2.5 7.24888 2.5 12.7717C2.5 18.2946 6.97715 22.7717 12.5 22.7717Z" stroke="#A1A1AA" stroke-width="1.5" stroke-linecap="round" stroke-linejoin="round"/>
<path d="M3 13.2717L8.5 15.2717L7.5 18.7717L8.5 21.7717" stroke="#A1A1AA" stroke-width="1.5" stroke-linecap="round" stroke-linejoin="round"/>
<path d="M17.5 21.2717L17 18.7717L14.5 17.7717V14.2717L17.5 13.2717L22 13.7717" stroke="#A1A1AA" stroke-width="1.5" stroke-linecap="round" stroke-linejoin="round"/>
<path d="M19.5 6.27173L19 7.77173L15.5 8.27173V11.2717L18 10.2717H20L22 11.2717" stroke="#A1A1AA" stroke-width="1.5" stroke-linecap="round" stroke-linejoin="round"/>
<path d="M3 11.2717L5.5 9.27173L8 8.77173L10 5.77173L9 3.77173" stroke="#A1A1AA" stroke-width="1.5" stroke-linecap="round" stroke-linejoin="round"/>
</svg>
