<svg width="56" height="40" viewBox="0 0 56 40" fill="none" xmlns="http://www.w3.org/2000/svg">
<g filter="url(#filter0_dd_11167_4251)">
<rect x="9.59961" y="5" width="46.4" height="30.0304" rx="5.37857" fill="white"/>
<rect x="9.48756" y="4.88795" width="46.6241" height="30.2545" rx="5.49062" stroke="black" stroke-width="0.224107"/>
<path d="M31.7917 23.6143H30.7481V15.4561H33.5148C34.216 15.4561 34.8139 15.6909 35.3031 16.1605C35.8032 16.6301 36.0532 17.2035 36.0532 17.8806C36.0532 18.5741 35.8032 19.1475 35.3031 19.6116C34.8193 20.0758 34.2214 20.3051 33.5148 20.3051H31.7917V23.6143ZM31.7917 16.4608V19.3058H33.5365C33.9496 19.3058 34.2975 19.1639 34.5693 18.8854C34.8465 18.6069 34.9878 18.2683 34.9878 17.8861C34.9878 17.5093 34.8465 17.1762 34.5693 16.8977C34.2975 16.6083 33.9551 16.4663 33.5365 16.4663H31.7917V16.4608Z" fill="#3C4043"/>
<path d="M38.7817 17.8478C39.5536 17.8478 40.1624 18.0553 40.6081 18.4703C41.0538 18.8854 41.2767 19.4533 41.2767 20.1741V23.6143H40.282V22.8389H40.2385C39.8091 23.4778 39.2329 23.7945 38.5154 23.7945C37.9012 23.7945 37.3902 23.6143 36.9771 23.2484C36.564 22.8826 36.3575 22.4293 36.3575 21.8833C36.3575 21.3044 36.5749 20.8457 37.0098 20.5072C37.4446 20.1632 38.0262 19.9939 38.7491 19.9939C39.3688 19.9939 39.8797 20.1085 40.2765 20.3379V20.0976C40.2765 19.7318 40.1352 19.426 39.8471 19.1693C39.559 18.9127 39.222 18.7871 38.8361 18.7871C38.2545 18.7871 37.7925 19.0328 37.4555 19.5297L36.5369 18.9509C37.0424 18.2137 37.7925 17.8478 38.7817 17.8478ZM37.4337 21.8996C37.4337 22.1727 37.5479 22.402 37.7816 22.5822C38.0099 22.7624 38.2817 22.8553 38.5915 22.8553C39.0318 22.8553 39.4231 22.6914 39.7656 22.3638C40.108 22.0362 40.282 21.6539 40.282 21.2116C39.9558 20.955 39.5047 20.8239 38.9231 20.8239C38.4991 20.8239 38.1458 20.9276 37.8631 21.1297C37.5751 21.3427 37.4337 21.5993 37.4337 21.8996Z" fill="#3C4043"/>
<path d="M46.9514 18.0281L43.4727 26.0662H42.3964L43.6901 23.2539L41.3963 18.0281H42.5323L44.1847 22.0362H44.2065L45.8154 18.0281H46.9514Z" fill="#3C4043"/>
<path d="M27.6405 19.6444C27.6405 19.3026 27.6101 18.9755 27.5536 18.6609H23.179V20.4629L25.6984 20.4635C25.5962 21.0631 25.2674 21.5742 24.7635 21.9149V23.0841H26.2632C27.1388 22.2699 27.6405 21.0664 27.6405 19.6444Z" fill="#4285F4"/>
<path d="M24.764 21.915C24.3466 22.1979 23.809 22.3633 23.1801 22.3633C21.9653 22.3633 20.9347 21.5409 20.5656 20.4324H19.0187V21.6381C19.7851 23.166 21.3603 24.2145 23.1801 24.2145C24.4379 24.2145 25.4946 23.7989 26.2637 23.0836L24.764 21.915Z" fill="#34A853"/>
<path d="M20.4199 19.5379C20.4199 19.2266 20.4715 18.9258 20.5656 18.6429V17.4372H19.0186C18.7017 18.069 18.5234 18.7821 18.5234 19.5379C18.5234 20.2937 18.7023 21.0068 19.0186 21.6386L20.5656 20.4329C20.4715 20.15 20.4199 19.8492 20.4199 19.5379Z" fill="#FABB05"/>
<path d="M23.1801 16.712C23.8666 16.712 24.4814 16.9495 24.9668 17.4137L26.2958 16.0797C25.4886 15.3245 24.4363 14.8608 23.1801 14.8608C21.3608 14.8608 19.785 15.9093 19.0186 17.4372L20.5656 18.6429C20.9346 17.5344 21.9653 16.712 23.1801 16.712Z" fill="#E94235"/>
</g>
<defs>
<filter id="filter0_dd_11167_4251" x="0.410714" y="0.293736" width="64.7782" height="48.4071" filterUnits="userSpaceOnUse" color-interpolation-filters="sRGB">
<feFlood flood-opacity="0" result="BackgroundImageFix"/>
<feColorMatrix in="SourceAlpha" type="matrix" values="0 0 0 0 0 0 0 0 0 0 0 0 0 0 0 0 0 0 127 0" result="hardAlpha"/>
<feOffset dy="0.448214"/>
<feGaussianBlur stdDeviation="2.24107"/>
<feColorMatrix type="matrix" values="0 0 0 0 0.717647 0 0 0 0 0.717647 0 0 0 0 0.717647 0 0 0 0.08 0"/>
<feBlend mode="normal" in2="BackgroundImageFix" result="effect1_dropShadow_11167_4251"/>
<feColorMatrix in="SourceAlpha" type="matrix" values="0 0 0 0 0 0 0 0 0 0 0 0 0 0 0 0 0 0 127 0" result="hardAlpha"/>
<feOffset dy="4.48214"/>
<feGaussianBlur stdDeviation="4.48214"/>
<feColorMatrix type="matrix" values="0 0 0 0 0.717647 0 0 0 0 0.717647 0 0 0 0 0.717647 0 0 0 0.08 0"/>
<feBlend mode="normal" in2="effect1_dropShadow_11167_4251" result="effect2_dropShadow_11167_4251"/>
<feBlend mode="normal" in="SourceGraphic" in2="effect2_dropShadow_11167_4251" result="shape"/>
</filter>
</defs>
</svg>
