<svg width="29" height="28" viewBox="0 0 29 28" fill="none" xmlns="http://www.w3.org/2000/svg">
<path d="M14.3346 18.6668C16.912 18.6668 19.0013 16.5775 19.0013 14.0002C19.0013 11.4228 16.912 9.3335 14.3346 9.3335C11.7573 9.3335 9.66797 11.4228 9.66797 14.0002C9.66797 16.5775 11.7573 18.6668 14.3346 18.6668Z" stroke="black" stroke-width="1.5" stroke-linecap="round" stroke-linejoin="round"/>
<path d="M3.83398 19.5V8.5C3.83398 5.73858 6.07256 3.5 8.83398 3.5H19.834C22.5954 3.5 24.834 5.73858 24.834 8.5V19.5C24.834 22.2614 22.5954 24.5 19.834 24.5H8.83398C6.07256 24.5 3.83398 22.2614 3.83398 19.5Z" stroke="black" stroke-width="1.5"/>
<path d="M20.75 7.59516L20.7617 7.5822" stroke="black" stroke-width="1.5" stroke-linecap="round" stroke-linejoin="round"/>
</svg>
