<svg width="65" height="40" viewBox="0 0 65 40" fill="none" xmlns="http://www.w3.org/2000/svg">
<g filter="url(#filter0_dd_11167_4245)">
<rect x="9.40039" y="5" width="46.4" height="30.0304" rx="5.37857" fill="white"/>
<rect x="9.28834" y="4.88795" width="46.6241" height="30.2545" rx="5.49062" stroke="black" stroke-width="0.224107"/>
<path d="M35.9332 13.8484H29.1015V26.1819H35.9332V13.8484Z" fill="#FF5F00"/>
<path d="M29.5353 20.0151C29.5342 18.8273 29.8022 17.6548 30.3188 16.5864C30.8355 15.518 31.5873 14.5817 32.5174 13.8484C31.3656 12.9389 29.9823 12.3732 28.5257 12.2162C27.069 12.0591 25.5978 12.3169 24.2801 12.9602C22.9624 13.6034 21.8514 14.6061 21.0742 15.8537C20.2969 17.1013 19.8848 18.5434 19.8848 20.0151C19.8848 21.4869 20.2969 22.929 21.0742 24.1766C21.8514 25.4241 22.9624 26.4269 24.2801 27.0701C25.5978 27.7133 27.069 27.9712 28.5257 27.8141C29.9823 27.657 31.3656 27.0914 32.5174 26.1819C31.5873 25.4485 30.8355 24.5122 30.3188 23.4438C29.8022 22.3754 29.5342 21.2029 29.5353 20.0151Z" fill="#EB001B"/>
<path d="M45.1496 20.0151C45.1497 21.4869 44.7375 22.929 43.9603 24.1765C43.1831 25.4241 42.0722 26.4268 40.7545 27.0701C39.4369 27.7133 37.9657 27.9712 36.509 27.8141C35.0524 27.657 33.6692 27.0914 32.5174 26.1819C33.4467 25.4478 34.1979 24.5113 34.7145 23.4431C35.231 22.3749 35.4995 21.2028 35.4995 20.0151C35.4995 18.8275 35.231 17.6554 34.7145 16.5872C34.1979 15.5189 33.4467 14.5825 32.5174 13.8484C33.6692 12.9389 35.0524 12.3732 36.509 12.2162C37.9657 12.0591 39.4369 12.3169 40.7545 12.9602C42.0722 13.6034 43.1831 14.6062 43.9603 15.8537C44.7375 17.1013 45.1497 18.5434 45.1496 20.0151Z" fill="#F79E1B"/>
<path d="M44.4047 24.8756V24.6231H44.5061V24.5716H44.248V24.6231H44.3494V24.8756H44.4047ZM44.9058 24.8756V24.5711H44.8267L44.7357 24.7805L44.6447 24.5711H44.5655V24.8756H44.6214V24.6459L44.7067 24.8439H44.7647L44.85 24.6454V24.8756H44.9058Z" fill="#F79E1B"/>
</g>
<defs>
<filter id="filter0_dd_11167_4245" x="0.211495" y="0.293736" width="64.7782" height="48.4071" filterUnits="userSpaceOnUse" color-interpolation-filters="sRGB">
<feFlood flood-opacity="0" result="BackgroundImageFix"/>
<feColorMatrix in="SourceAlpha" type="matrix" values="0 0 0 0 0 0 0 0 0 0 0 0 0 0 0 0 0 0 127 0" result="hardAlpha"/>
<feOffset dy="0.448214"/>
<feGaussianBlur stdDeviation="2.24107"/>
<feColorMatrix type="matrix" values="0 0 0 0 0.717647 0 0 0 0 0.717647 0 0 0 0 0.717647 0 0 0 0.08 0"/>
<feBlend mode="normal" in2="BackgroundImageFix" result="effect1_dropShadow_11167_4245"/>
<feColorMatrix in="SourceAlpha" type="matrix" values="0 0 0 0 0 0 0 0 0 0 0 0 0 0 0 0 0 0 127 0" result="hardAlpha"/>
<feOffset dy="4.48214"/>
<feGaussianBlur stdDeviation="4.48214"/>
<feColorMatrix type="matrix" values="0 0 0 0 0.717647 0 0 0 0 0.717647 0 0 0 0 0.717647 0 0 0 0.08 0"/>
<feBlend mode="normal" in2="effect1_dropShadow_11167_4245" result="effect2_dropShadow_11167_4245"/>
<feBlend mode="normal" in="SourceGraphic" in2="effect2_dropShadow_11167_4245" result="shape"/>
</filter>
</defs>
</svg>
