<svg width="66" height="40" viewBox="0 0 66 40" fill="none" xmlns="http://www.w3.org/2000/svg">
<g filter="url(#filter0_dd_11167_4247)">
<rect x="9.80078" y="5" width="46.4" height="30.0304" rx="5.37857" fill="white"/>
<rect x="9.68873" y="4.88795" width="46.6241" height="30.2545" rx="5.49062" stroke="black" stroke-width="0.224107"/>
<path fill-rule="evenodd" clip-rule="evenodd" d="M19.9514 15.646H17.2763C17.0932 15.646 16.9375 15.7796 16.909 15.9611L15.827 22.8518C15.8055 22.9879 15.9103 23.1104 16.0477 23.1104H17.3248C17.5079 23.1104 17.6635 22.9768 17.6921 22.7949L17.9839 20.9364C18.0121 20.7544 18.1681 20.6209 18.3508 20.6209H19.1977C20.9599 20.6209 21.9768 19.7643 22.2426 18.0669C22.3622 17.3243 22.2476 16.7408 21.9014 16.332C21.5212 15.8835 20.8467 15.646 19.9514 15.646ZM20.2601 18.1627C20.1138 19.127 19.3804 19.127 18.6712 19.127H18.2675L18.5507 17.3261C18.5675 17.2174 18.6614 17.1372 18.7709 17.1372H18.9559C19.439 17.1372 19.8948 17.1372 20.1303 17.4138C20.2706 17.5789 20.3136 17.824 20.2601 18.1627ZM27.9481 18.1318H26.667C26.5579 18.1318 26.4636 18.212 26.4467 18.3209L26.3901 18.6808L26.3005 18.5504C26.0231 18.146 25.4048 18.0109 24.7875 18.0109C23.3718 18.0109 22.1627 19.0879 21.9272 20.5988C21.8049 21.3523 21.9788 22.0729 22.4044 22.5755C22.7949 23.0375 23.3535 23.2301 24.018 23.2301C25.1586 23.2301 25.7913 22.4933 25.7913 22.4933L25.7341 22.8509C25.7125 22.9877 25.8173 23.1102 25.9538 23.1102H27.1078C27.2914 23.1102 27.4461 22.9766 27.4751 22.7948L28.1675 18.3904C28.1894 18.2549 28.0849 18.1318 27.9481 18.1318ZM26.1623 20.6364C26.0387 21.3715 25.4578 21.865 24.7171 21.865C24.3451 21.865 24.0477 21.7452 23.8569 21.5181C23.6676 21.2926 23.5955 20.9715 23.6558 20.614C23.7713 19.8851 24.3619 19.3756 25.0914 19.3756C25.4551 19.3756 25.7509 19.4968 25.9457 19.726C26.1408 19.9574 26.2183 20.2804 26.1623 20.6364ZM33.4834 18.1317H34.7708C34.9511 18.1317 35.0563 18.3348 34.9538 18.4833L30.6722 24.6914C30.6029 24.792 30.4887 24.8518 30.3667 24.8518H29.0809C28.8999 24.8518 28.7942 24.6471 28.899 24.4982L30.2322 22.6078L28.8143 18.4279C28.7652 18.2826 28.872 18.1317 29.0259 18.1317H30.2908C30.4552 18.1317 30.6002 18.24 30.6476 18.398L31.4001 20.9226L33.1757 18.2955C33.2452 18.1929 33.3607 18.1317 33.4834 18.1317Z" fill="#253B80"/>
<path fill-rule="evenodd" clip-rule="evenodd" d="M47.4415 22.8512L48.5394 15.8345C48.5562 15.7256 48.6502 15.6454 48.7593 15.645H49.9953C50.1318 15.645 50.2366 15.7679 50.2151 15.9039L49.1324 22.7943C49.1042 22.9762 48.9485 23.1098 48.7651 23.1098H47.6613C47.5248 23.1098 47.42 22.9872 47.4415 22.8512ZM39.0334 15.6454H36.3578C36.1752 15.6454 36.0195 15.779 35.9909 15.9605L34.9089 22.8512C34.8874 22.9872 34.9922 23.1098 35.1289 23.1098H36.5017C36.6293 23.1098 36.7385 23.0163 36.7584 22.8891L37.0654 20.9358C37.0936 20.7538 37.2497 20.6203 37.4323 20.6203H38.2788C40.0413 20.6203 41.0581 19.7637 41.324 18.0663C41.444 17.3237 41.3287 16.7402 40.9826 16.3314C40.6027 15.8829 39.9287 15.6454 39.0334 15.6454ZM39.3421 18.1621C39.1962 19.1264 38.4627 19.1264 37.7531 19.1264H37.3498L37.6334 17.3255C37.6503 17.2168 37.7433 17.1366 37.8532 17.1366H38.0382C38.521 17.1366 38.9771 17.1366 39.2125 17.4132C39.3529 17.5783 39.3956 17.8234 39.3421 18.1621ZM47.0294 18.1312H45.7492C45.6391 18.1312 45.5457 18.2114 45.5293 18.3203L45.4726 18.6802L45.3826 18.5498C45.1053 18.1454 44.4873 18.0103 43.8701 18.0103C42.4543 18.0103 41.2456 19.0873 41.0101 20.5981C40.8881 21.3517 41.0614 22.0723 41.4869 22.5748C41.8781 23.0369 42.436 23.2294 43.1005 23.2294C44.2411 23.2294 44.8736 22.4927 44.8736 22.4927L44.8166 22.8503C44.7951 22.9871 44.8999 23.1096 45.0373 23.1096H46.1907C46.3734 23.1096 46.529 22.976 46.5576 22.7941L47.2504 18.3898C47.2716 18.2543 47.1668 18.1312 47.0294 18.1312ZM45.2438 20.6358C45.1209 21.3709 44.5393 21.8644 43.7984 21.8644C43.4271 21.8644 43.1291 21.7446 42.9382 21.5175C42.7488 21.292 42.6777 20.9709 42.7372 20.6134C42.8533 19.8845 43.4432 19.375 44.1727 19.375C44.5366 19.375 44.8322 19.4962 45.0271 19.7253C45.223 19.9568 45.3005 20.2798 45.2438 20.6358Z" fill="#179BD7"/>
</g>
<defs>
<filter id="filter0_dd_11167_4247" x="0.611886" y="0.293736" width="64.7782" height="48.4071" filterUnits="userSpaceOnUse" color-interpolation-filters="sRGB">
<feFlood flood-opacity="0" result="BackgroundImageFix"/>
<feColorMatrix in="SourceAlpha" type="matrix" values="0 0 0 0 0 0 0 0 0 0 0 0 0 0 0 0 0 0 127 0" result="hardAlpha"/>
<feOffset dy="0.448214"/>
<feGaussianBlur stdDeviation="2.24107"/>
<feColorMatrix type="matrix" values="0 0 0 0 0.717647 0 0 0 0 0.717647 0 0 0 0 0.717647 0 0 0 0.08 0"/>
<feBlend mode="normal" in2="BackgroundImageFix" result="effect1_dropShadow_11167_4247"/>
<feColorMatrix in="SourceAlpha" type="matrix" values="0 0 0 0 0 0 0 0 0 0 0 0 0 0 0 0 0 0 127 0" result="hardAlpha"/>
<feOffset dy="4.48214"/>
<feGaussianBlur stdDeviation="4.48214"/>
<feColorMatrix type="matrix" values="0 0 0 0 0.717647 0 0 0 0 0.717647 0 0 0 0 0.717647 0 0 0 0.08 0"/>
<feBlend mode="normal" in2="effect1_dropShadow_11167_4247" result="effect2_dropShadow_11167_4247"/>
<feBlend mode="normal" in="SourceGraphic" in2="effect2_dropShadow_11167_4247" result="shape"/>
</filter>
</defs>
</svg>
